<?xml version="1.0" encoding="utf-8"?>
<!-- Generator: Adobe Illustrator 24.2.1, SVG Export Plug-In . SVG Version: 6.00 Build 0)  -->
<svg version="1.1" id="Capa_1" xmlns="http://www.w3.org/2000/svg" xmlns:xlink="http://www.w3.org/1999/xlink" x="0px" y="0px"
	 viewBox="0 0 45 37.8" style="enable-background:new 0 0 45 37.8;" xml:space="preserve">
<style type="text/css">
	.st0{fill:#FFFFFF;}
	.st1{fill-rule:evenodd;clip-rule:evenodd;fill:#FFFFFF;}
</style>
<g>
	<path class="st0" d="M40.5,5.2c-1.6-2.1-3.9-3.7-6.5-4.6c-2.7-0.8-5.4-0.8-8,0c-2,0.6-3.9,1.8-5.4,3.3c-1.5-1.3-3.2-2.2-5.1-2.6
		c-2.4-0.6-4.9-0.5-7.3,0.4S3.8,4.2,2.3,6.1C0.9,8.1,0,10.5,0,13c-0.1,2.6,0.6,5,2,7.1c1.3,2,3.2,3.7,5.6,4.7C7.7,24.9,7.8,25,8,25
		l0,0l0,0h0.2l0,0l0,0h19.7c0.2,0.5,0.6,0.9,1,1.2c1.5,1.1,3.6,0.7,4.6-0.8c1.1-1.5,0.7-3.6-0.8-4.6c-1.5-1.1-3.6-0.7-4.6,0.8
		c-0.1,0.2-0.2,0.3-0.3,0.5L8.5,22c-1.7-0.8-3-2-4-3.5c-1-1.6-1.6-3.4-1.5-5.4c0-1.9,0.6-3.7,1.7-5.2s2.6-2.7,4.5-3.4
		C11,3.8,13,3.7,14.8,4.2s3.5,1.4,4.8,2.9c0.1,0.1,0.1,0.2,0.2,0.2c0.6,0.5,1.6,0.4,2.1-0.3C23.2,5.3,25,4.1,27,3.4
		c2-0.6,4.1-0.7,6.2,0s3.8,1.9,5.1,3.5c0.8,1.1,1.5,2.4,1.8,3.7c1.2,0.6,2.3,1.4,3.2,2.3c0-0.1,0-0.2,0-0.4
		C43.1,9.9,42.1,7.3,40.5,5.2z"/>
	<path class="st1" d="M45,23.8c0-0.3,0-0.5-0.1-0.8v-0.1C44.6,21,44,19.3,43,17.7c-1.3-2-3.2-3.7-5.6-4.7c-0.1-0.1-0.3-0.1-0.4-0.1
		l0,0l0,0h-0.2H17.1c-0.2-0.5-0.6-0.9-1-1.2c-1.5-1.1-3.6-0.7-4.6,0.8c-1.1,1.5-0.7,3.6,0.8,4.6c1.5,1.1,3.6,0.7,4.6-0.8
		c0.1-0.2,0.2-0.3,0.3-0.5h19.4c1.7,0.8,3,2,4,3.5c0.1,0.2,0.3,0.4,0.4,0.7c0.2,0.3,0.3,0.6,0.4,0.9c0,0.1,0.1,0.2,0.1,0.2
		c0,0.1,0.1,0.2,0.1,0.3c0,0.1,0.1,0.2,0.1,0.3c0,0.1,0.1,0.2,0.1,0.3c0,0.1,0.1,0.2,0.1,0.3c0,0.1,0,0.2,0.1,0.3
		c0,0.1,0,0.2,0.1,0.4c0,0.1,0,0.2,0,0.3c0,0.1,0,0.3,0,0.4s0,0.2,0,0.2c0,0.2,0,0.5,0,0.7s0,0.5,0,0.7c-0.1,0.8-0.3,1.6-0.6,2.3
		c-0.1,0.3-0.2,0.5-0.3,0.7c-0.2,0.5-0.5,1-0.9,1.5c-0.4,0.6-0.9,1.1-1.4,1.6c-0.9,0.8-1.9,1.4-3,1.8s-2.3,0.6-3.5,0.6
		c-0.5,0-0.9-0.1-1.4-0.1c-0.2,0-0.5-0.1-0.7-0.1c-0.9-0.2-1.8-0.6-2.6-1.1c-0.6-0.4-1.2-0.8-1.7-1.3c-0.2-0.2-0.3-0.3-0.5-0.5
		c-0.1-0.1-0.1-0.2-0.2-0.2c-0.1-0.1-0.2-0.1-0.3-0.2c-0.2-0.1-0.4-0.1-0.6-0.1l0,0c-0.4,0-0.7,0.1-1,0.4c-0.1,0.1-0.1,0.1-0.2,0.2
		c-0.2,0.2-0.3,0.4-0.5,0.6c-0.4,0.4-0.7,0.8-1.1,1.1c-0.2,0.2-0.4,0.3-0.6,0.5c-0.9,0.6-1.8,1.1-2.8,1.4c-2,0.6-4.1,0.7-6.2,0
		s-3.8-1.9-5.1-3.5C6,29.8,5.4,28.5,5,27.1c-1.2-0.6-2.3-1.4-3.2-2.3c0,0.1,0,0.2,0,0.4c0.1,2.3,0.8,4.5,1.9,6.3l0,0l0,0
		C3.8,31.7,3.9,31.9,4,32c0.1,0.2,0.3,0.4,0.4,0.6c1,1.3,2.3,2.5,3.7,3.3c0.9,0.5,1.8,0.9,2.8,1.3c2.7,0.8,5.4,0.8,8,0
		c1-0.3,2-0.8,2.9-1.3c0.9-0.6,1.8-1.2,2.5-2c0.6,0.5,1.2,0.9,1.8,1.3c0.8,0.5,1.7,0.9,2.6,1.2c0.2,0.1,0.5,0.1,0.7,0.2
		c2.4,0.6,4.9,0.5,7.3-0.4c1.2-0.4,2.3-1.1,3.3-1.8c0.5-0.4,1-0.8,1.4-1.2c0.2-0.2,0.4-0.4,0.6-0.7c0.2-0.2,0.4-0.5,0.6-0.7
		c0.5-0.7,1-1.5,1.3-2.4c0.2-0.6,0.4-1.2,0.6-1.8c0.2-0.9,0.4-1.8,0.4-2.8C45,24.4,45,24.1,45,23.8z"/>
</g>
</svg>
