<?xml version="1.0" encoding="utf-8"?>
<!-- Generator: Adobe Illustrator 24.2.1, SVG Export Plug-In . SVG Version: 6.00 Build 0)  -->
<svg version="1.1" id="Capa_1" xmlns="http://www.w3.org/2000/svg" xmlns:xlink="http://www.w3.org/1999/xlink" x="0px" y="0px"
	 viewBox="0 0 214.9 37.8" style="enable-background:new 0 0 214.9 37.8;" xml:space="preserve">
<style type="text/css">
	.st0{fill:#274672;}
	.st1{fill:#B5CD27;}
	.st2{fill-rule:evenodd;clip-rule:evenodd;fill:#274672;}
</style>
<g>
	<g>
		<path class="st0" d="M69.7,37.1c-3.3,0-5.8-1-7.5-2.9s-2.7-4.5-2.9-7.9l5.2-1.3c0.3,5.2,2,7.8,5.2,7.8c2.6,0,3.9-1.3,3.9-3.9
			c0-0.8-0.1-1.5-0.3-2.1c-0.2-0.7-0.5-1.3-1-1.8c-0.4-0.5-0.8-1-1.2-1.3c-0.4-0.3-0.8-0.7-1.4-1.2l-6.5-5.2
			c-1.2-0.9-2.1-2.1-2.8-3.6c-0.7-1.4-1.1-3.1-1.1-4.9c0-2.7,0.8-4.8,2.5-6.4C63.5,0.8,65.7,0,68.4,0c2.9,0,5.3,0.7,7,2.2
			c1.7,1.4,2.8,3.5,3.2,6.1c0,0.3,0.1,0.7,0.1,1.2l-5.2,1.3c0-0.2,0-0.6-0.1-1c-0.2-1.6-0.7-3-1.6-4c-0.8-1-2-1.5-3.5-1.5
			c-1.2,0-2.2,0.3-2.9,1c-0.7,0.7-1,1.7-1,2.9c0,2,0.9,3.7,2.6,5.1l6.5,5.2c3.5,2.8,5.2,6.1,5.2,10c0,2.7-0.8,4.7-2.5,6.2
			C74.7,36.3,72.5,37.1,69.7,37.1z"/>
		<path class="st0" d="M82.6,36.7V0.4h7.2l5.2,27.8l5.1-27.8h7.2v36.3h-5.2V8l-5.2,28.7H93L87.8,8v28.7H82.6z"/>
		<path class="st0" d="M110.2,36.7L118,0.4h5.2l7.8,36.3h-5.2l-1.9-9.1h-6.5l-1.9,9.1H110.2z M118,23.7h5.2l-2.6-15.6L118,23.7z"/>
		<path class="st0" d="M133.9,36.7V0.4h6.5c3.9,0,6.8,0.8,8.7,2.3c2,1.5,2.9,4,2.9,7.5c0,2.2-0.4,4-1.2,5.4c-0.8,1.5-1.9,2.5-3.4,3
			l5.8,18.2h-5.1l-5.2-16.9h-3.9v16.9H133.9z M139.1,15.9h1.3c2.2,0,3.8-0.5,4.9-1.4c1.1-0.9,1.6-2.4,1.6-4.5s-0.5-3.6-1.6-4.5
			c-1.1-0.9-2.7-1.4-4.9-1.4h-1.3V15.9z"/>
		<path class="st0" d="M160.2,36.7V5h-6.5V0.4h18.2V5h-6.5v31.7H160.2z"/>
		<path class="st1" d="M183.9,37.1c-3.3,0-5.8-1-7.5-2.9c-1.7-1.9-2.7-4.5-2.9-7.9l5.2-1.3c0.3,5.2,2,7.8,5.2,7.8
			c2.6,0,3.9-1.3,3.9-3.9c0-0.8-0.1-1.5-0.3-2.1c-0.2-0.7-0.5-1.3-1-1.8s-0.8-1-1.2-1.3c-0.4-0.3-0.8-0.7-1.4-1.2l-6.5-5.2
			c-1.2-0.9-2.1-2.1-2.8-3.6c-0.7-1.4-1.1-3.1-1.1-4.9c0-2.7,0.8-4.8,2.5-6.4c1.7-1.6,3.9-2.4,6.6-2.4c2.9,0,5.3,0.7,7,2.2
			c1.7,1.4,2.8,3.5,3.2,6.1c0,0.3,0.1,0.7,0.1,1.2l-5.2,1.3c0-0.2,0-0.6-0.1-1c-0.2-1.6-0.7-3-1.6-4c-0.8-1-2-1.5-3.5-1.5
			c-1.2,0-2.2,0.3-2.9,1c-0.7,0.7-1,1.7-1,2.9c0,2,0.9,3.7,2.6,5.1l6.5,5.2c3.5,2.8,5.2,6.1,5.2,10c0,2.7-0.8,4.7-2.5,6.2
			C188.9,36.3,186.7,37.1,183.9,37.1z"/>
		<path class="st1" d="M201.9,36.7V25l-7.8-24.7h5.2l5.2,18.2l5.2-18.2h5.2L207.1,25v11.7H201.9z"/>
	</g>
</g>
<g>
	<path class="st1" d="M40.5,5.2c-1.6-2.1-3.9-3.7-6.5-4.6c-2.7-0.8-5.4-0.8-8,0c-2,0.6-3.9,1.8-5.4,3.3c-1.5-1.3-3.2-2.2-5.1-2.6
		c-2.4-0.6-4.9-0.5-7.3,0.4C5.8,2.6,3.8,4.2,2.3,6.1c-1.4,2-2.3,4.4-2.3,6.9c-0.1,2.6,0.6,5,2,7.1c1.3,2,3.2,3.7,5.6,4.7
		C7.7,24.9,7.8,25,8,25l0,0l0,0l0.2,0c0,0,0,0,0,0l0,0l19.7,0c0.2,0.5,0.6,0.9,1,1.2c1.5,1.1,3.6,0.7,4.6-0.8
		c1.1-1.5,0.7-3.6-0.8-4.6c-1.5-1.1-3.6-0.7-4.6,0.8c-0.1,0.2-0.2,0.3-0.3,0.5L8.5,22c-1.7-0.8-3-2-4-3.5c-1-1.6-1.6-3.4-1.5-5.4
		C3,11.2,3.6,9.4,4.7,7.9c1.1-1.5,2.6-2.7,4.5-3.4C11,3.8,13,3.7,14.8,4.2c1.8,0.5,3.5,1.4,4.8,2.9c0.1,0.1,0.1,0.2,0.2,0.2
		c0.6,0.5,1.6,0.4,2.1-0.3c1.3-1.7,3.1-2.9,5.1-3.6c2-0.6,4.1-0.7,6.2,0c2.1,0.7,3.8,1.9,5.1,3.5c0.8,1.1,1.5,2.4,1.8,3.7
		c1.2,0.6,2.3,1.4,3.2,2.3c0-0.1,0-0.2,0-0.4C43.1,9.9,42.1,7.3,40.5,5.2z"/>
	<path class="st2" d="M45,23.8c0-0.3,0-0.5-0.1-0.8c0,0,0-0.1,0-0.1C44.6,21,44,19.3,43,17.7c-1.3-2-3.2-3.7-5.6-4.7
		c-0.1-0.1-0.3-0.1-0.4-0.1l0,0l0,0l-0.2,0l-19.7,0c-0.2-0.5-0.6-0.9-1-1.2c-1.5-1.1-3.6-0.7-4.6,0.8c-1.1,1.5-0.7,3.6,0.8,4.6
		c1.5,1.1,3.6,0.7,4.6-0.8c0.1-0.2,0.2-0.3,0.3-0.5l19.4,0c1.7,0.8,3,2,4,3.5c0.1,0.2,0.3,0.4,0.4,0.7c0.2,0.3,0.3,0.6,0.4,0.9
		c0,0.1,0.1,0.2,0.1,0.2c0,0.1,0.1,0.2,0.1,0.3c0,0.1,0.1,0.2,0.1,0.3c0,0.1,0.1,0.2,0.1,0.3c0,0.1,0.1,0.2,0.1,0.3
		c0,0.1,0,0.2,0.1,0.3c0,0.1,0,0.2,0.1,0.4c0,0.1,0,0.2,0,0.3c0,0.1,0,0.3,0,0.4c0,0.1,0,0.2,0,0.2c0,0.2,0,0.5,0,0.7
		c0,0.2,0,0.5,0,0.7c-0.1,0.8-0.3,1.6-0.6,2.3c-0.1,0.3-0.2,0.5-0.3,0.7c-0.2,0.5-0.5,1-0.9,1.5c-0.4,0.6-0.9,1.1-1.4,1.6
		c-0.9,0.8-1.9,1.4-3,1.8c-1.1,0.4-2.3,0.6-3.5,0.6c-0.5,0-0.9-0.1-1.4-0.1c-0.2,0-0.5-0.1-0.7-0.1c-0.9-0.2-1.8-0.6-2.6-1.1
		c-0.6-0.4-1.2-0.8-1.7-1.3c-0.2-0.2-0.3-0.3-0.5-0.5c-0.1-0.1-0.1-0.2-0.2-0.2c-0.1-0.1-0.2-0.1-0.3-0.2c-0.2-0.1-0.4-0.1-0.6-0.1
		c0,0,0,0,0,0c-0.4,0-0.7,0.1-1,0.4c-0.1,0.1-0.1,0.1-0.2,0.2c-0.2,0.2-0.3,0.4-0.5,0.6c-0.4,0.4-0.7,0.8-1.1,1.1
		c-0.2,0.2-0.4,0.3-0.6,0.5c-0.9,0.6-1.8,1.1-2.8,1.4c-2,0.6-4.1,0.7-6.2,0c-2.1-0.7-3.8-1.9-5.1-3.5C6,29.8,5.4,28.5,5,27.1
		c-1.2-0.6-2.3-1.4-3.2-2.3c0,0.1,0,0.2,0,0.4c0.1,2.3,0.8,4.5,1.9,6.3h0c0,0,0,0,0,0C3.8,31.7,3.9,31.9,4,32
		c0.1,0.2,0.3,0.4,0.4,0.6c1,1.3,2.3,2.5,3.7,3.3c0.9,0.5,1.8,0.9,2.8,1.3c2.7,0.8,5.4,0.8,8,0c1-0.3,2-0.8,2.9-1.3
		c0.9-0.6,1.8-1.2,2.5-2c0.6,0.5,1.2,0.9,1.8,1.3c0.8,0.5,1.7,0.9,2.6,1.2c0.2,0.1,0.5,0.1,0.7,0.2c2.4,0.6,4.9,0.5,7.3-0.4
		c1.2-0.4,2.3-1.1,3.3-1.8c0.5-0.4,1-0.8,1.4-1.2c0.2-0.2,0.4-0.4,0.6-0.7c0.2-0.2,0.4-0.5,0.6-0.7c0.5-0.7,1-1.5,1.3-2.4
		c0.2-0.6,0.4-1.2,0.6-1.8c0.2-0.9,0.4-1.8,0.4-2.8C45,24.4,45,24.1,45,23.8z"/>
</g>
</svg>
